<?xml version="1.0" standalone="no"?>
<!DOCTYPE svg PUBLIC "-//W3C//DTD SVG 20010904//EN" "http://www.w3.org/TR/2001/REC-SVG-20010904/DTD/svg10.dtd">
<svg xmlns="http://www.w3.org/2000/svg" version="1.1" viewBox="0 0 447 559" preserveAspectRatio="xMidYMid meet">
  <g transform="translate(0,559) scale(0.1, -0.1)">
    <path d="M4095 5455 c-36 -68 -65 -126 -65 -128 0 -17 -272 -481 -367 -627 -161 -247 -380 -547 -494 -675 -282 -321 -487 -508 -729 -668 -123 -81 -168 -105 -309 -163 -177 -74 -251 -88 -441 -89 -200 0 -266 14 -425 90 -231 111 -419 282 -599 548 -57 83 -58 84 -89 76 -150 -40 -334 -91 -345 -94 -15 -5 13 -50 278 -454 69 -105 145 -223 170 -262 25 -38 104 -161 176 -272 238 -365 247 -380 227 -375 -10 3 -58 18 -108 32 -156 46 -254 59 -415 53 -147 -5 -218 -19 -312 -59 -27 -11 -48 -24 -48 -28 0 -5 39 -22 88 -40 83 -30 389 -152 517 -207 343 -146 786 -368 1033 -517 62 -38 114 -67 116 -65 8 11 116 189 116 193 0 2 -41 43 -91 92 -206 202 -533 605 -781 964 -94 137 -155 226 -163 239 -9 16 -10 16 70 -35 137 -87 354 -175 528 -215 131 -30 362 -37 492 -15 117 20 230 58 345 116 74 37 195 112 210 129 3 4 22 19 42 34 21 15 65 53 98 83 l60 56 -16 -39 c-9 -21 -25 -55 -36 -76 -39 -78 -247 -588 -306 -752 -127 -354 -152 -426 -156 -443 -1 -9 -5 -24 -8 -32 -144 -417 -461 -1652 -431 -1681 12 -11 240 -129 251 -129 4 0 25 46 46 102 21 56 53 134 72 174 19 40 34 76 34 79 0 18 139 254 234 395 45 68 68 98 169 225 167 209 410 431 660 603 105 72 290 182 307 182 5 0 10 4 12 9 2 4 12 11 24 15 21 6 21 6 7 -61 -32 -159 -63 -655 -48 -781 l7 -59 89 -43 c48 -24 91 -41 94 -38 4 3 -1 22 -9 42 -22 54 -53 207 -67 335 -14 137 -6 372 19 541 l17 115 70 34 c71 34 355 141 375 141 6 0 8 5 5 10 -9 15 -204 11 -331 -5 -332 -44 -630 -169 -983 -411 -117 -80 -330 -254 -429 -349 -31 -30 -58 -52 -60 -50 -10 10 117 441 233 790 63 189 201 552 297 780 90 215 285 617 376 775 109 192 269 474 302 535 18 33 45 80 60 105 15 25 85 149 156 275 168 304 157 283 228 410 280 493 323 572 316 578 -3 2 -71 27 -152 55 l-147 50 -66 -123z" />
  </g>
</svg>